<?xml version="1.0" standalone="no"?>
<!DOCTYPE svg PUBLIC "-//W3C//DTD SVG 20010904//EN"
 "http://www.w3.org/TR/2001/REC-SVG-20010904/DTD/svg10.dtd">
<svg version="1.0" xmlns="http://www.w3.org/2000/svg"
 width="375.000000pt" height="375.000000pt" viewBox="0 0 375.000000 375.000000"
 preserveAspectRatio="xMidYMid meet">
<metadata>
Created by potrace 1.11, written by Peter Selinger 2001-2013
</metadata>
<g transform="translate(0.000000,375.000000) scale(0.100000,-0.100000)"
fill="#000000" stroke="none">
<path d="M1078 3590 c-297 -51 -514 -250 -572 -524 -26 -126 -6 -301 47 -401
l22 -40 6 75 c3 45 20 119 42 185 21 61 37 117 37 125 0 27 18 -6 61 -110 23
-58 55 -123 71 -145 27 -38 118 -118 126 -110 2 2 5 36 7 77 3 74 16 143 35
192 5 15 12 55 15 88 11 120 92 231 190 258 59 17 144 8 194 -21 119 -66 164
-261 100 -435 l-22 -61 28 -38 c16 -20 83 -89 150 -151 l120 -114 23 27 c37
46 109 202 136 295 90 310 -30 613 -295 751 -105 55 -202 78 -349 82 -69 1
-146 -1 -172 -5z"/>
<path d="M1056 2924 c-40 -86 -57 -239 -36 -339 9 -44 17 -58 43 -74 57 -35
147 -146 147 -181 0 -9 -6 -5 -17 10 -31 47 -78 82 -220 166 -150 89 -237 159
-268 218 -25 45 -35 46 -36 1 -1 -19 -2 -45 -3 -57 -2 -28 17 -106 33 -137 11
-20 11 -22 -6 -17 -38 11 -91 17 -165 20 l-78 3 64 -58 c68 -63 101 -117 91
-150 -7 -22 -59 -57 -220 -148 -60 -34 -126 -76 -145 -92 l-35 -29 35 7 c64
13 173 8 210 -10 70 -35 87 -87 64 -197 -8 -36 -13 -68 -11 -72 1 -4 33 17 72
47 77 60 236 147 305 166 l45 13 -50 12 c-27 7 -62 13 -77 13 -16 1 -28 4 -28
9 1 13 85 71 141 95 85 38 239 62 299 47 19 -5 12 -8 -31 -13 -65 -8 -188 -47
-226 -73 l-27 -17 70 -18 c38 -10 72 -18 77 -18 17 -2 5 -17 -23 -29 -55 -25
-180 -167 -180 -206 0 -3 21 4 47 16 56 25 156 22 216 -7 105 -50 129 -188 50
-291 l-35 -47 57 7 c31 3 61 9 67 12 25 16 -30 -61 -66 -92 -43 -37 -37 -41
39 -20 96 25 194 89 224 145 8 14 4 16 -29 16 -59 0 -73 19 -67 86 4 30 10 64
13 75 7 18 7 19 -14 1 -26 -23 -60 -15 -68 17 -6 25 10 96 32 138 13 25 12 27
-7 33 -33 11 -51 13 -99 15 -107 2 58 40 200 46 170 6 207 -21 160 -118 -11
-23 -20 -42 -20 -42 0 -1 29 -2 63 -3 137 -5 212 -61 205 -155 -3 -52 -1 -52
56 0 84 76 135 209 127 332 l-1 25 -20 -30 c-11 -16 -34 -40 -52 -52 l-32 -23
-11 32 c-5 18 -23 41 -40 53 -28 19 -30 25 -31 86 -3 113 -65 216 -214 354
-244 227 -329 348 -332 475 -1 26 -2 28 -13 13 -22 -35 -34 -97 -32 -175 l2
-79 144 -137 c124 -118 241 -256 241 -284 0 -5 -22 17 -49 49 -26 32 -90 96
-142 143 -260 233 -345 349 -353 478 -4 56 -9 59 -30 16z m478 -757 c26 -18
86 -101 86 -118 0 -4 -16 -3 -36 1 -57 13 -92 53 -119 139 -6 21 -5 22 17 10
12 -6 36 -21 52 -32z"/>
<path d="M2850 2388 c-63 -24 -116 -58 -215 -139 -83 -67 -107 -80 -124 -69
-18 10 -9 46 23 93 14 20 22 37 18 37 -13 0 -133 -100 -179 -149 -81 -86 -175
-238 -198 -321 -6 -21 0 -18 37 21 132 138 390 275 558 294 30 4 67 8 83 10
15 2 25 -1 21 -6 -3 -5 -14 -9 -26 -9 -47 0 -150 -35 -253 -85 -125 -61 -244
-148 -361 -261 -78 -78 -194 -211 -194 -225 0 -4 10 -9 23 -13 12 -3 64 -39
116 -81 l94 -75 59 111 c94 179 217 352 299 422 124 107 332 134 453 59 29
-18 30 -18 92 15 97 52 208 76 351 77 l122 1 -27 28 c-43 45 -162 121 -243
155 -146 61 -278 66 -443 17 -95 -27 -116 -27 -116 3 0 21 33 55 87 88 49 30
20 31 -57 2z"/>
<path d="M349 1908 c-140 -134 -225 -285 -253 -447 l-6 -33 40 36 c69 62 91
42 60 -56 -43 -142 -55 -229 -54 -388 2 -226 88 -445 227 -579 l36 -33 -15 42
c-21 59 -15 114 11 118 14 2 36 -17 77 -67 147 -180 359 -279 608 -287 394
-11 698 179 933 584 42 72 44 84 18 103 -11 8 -70 57 -133 109 -62 52 -121
101 -130 108 -14 12 -22 6 -59 -50 -53 -79 -167 -193 -240 -242 -182 -120
-360 -111 -504 25 -89 84 -135 202 -135 349 0 174 66 337 202 501 21 26 38 50
38 54 0 4 -28 6 -63 3 -58 -3 -69 -8 -161 -72 l-98 -69 7 44 c4 24 9 51 10 61
2 9 7 38 11 65 3 26 11 56 16 66 12 24 7 22 -74 -25 -52 -30 -110 -80 -201
-172 -121 -123 -127 -128 -123 -95 3 19 8 77 11 130 3 52 12 122 18 155 15 72
16 116 2 121 -6 2 -40 -25 -76 -59z"/>
<path d="M1426 1865 c-11 -30 -6 -94 10 -127 9 -18 44 -55 78 -83 95 -77 107
-94 118 -183 17 -138 28 -152 335 -407 97 -80 162 -141 177 -168 25 -42 41
-110 39 -157 -9 -136 -5 -230 11 -282 27 -85 126 -189 203 -212 l22 -7 -24 43
c-47 84 -42 199 10 276 l24 35 6 -39 c31 -190 164 -339 345 -388 63 -17 198
-15 275 4 72 18 183 73 233 115 49 42 53 57 15 46 -62 -17 -174 4 -258 47
l-50 26 90 7 c191 14 337 103 408 249 133 272 -64 566 -397 595 -36 3 -66 3
-66 1 0 -3 16 -13 37 -22 80 -38 133 -118 133 -200 0 -85 -45 -150 -137 -198
-41 -21 -171 -41 -207 -32 l-27 7 30 34 c72 82 78 247 13 355 -21 33 -63 80
-84 91 -14 8 -16 5 -9 -19 18 -70 -18 -155 -81 -188 -43 -22 -115 -21 -160 2
-20 10 -135 100 -255 200 -120 100 -233 189 -252 198 -18 10 -73 22 -123 26
-104 10 -111 16 -128 100 -20 94 -45 118 -133 127 -71 6 -153 32 -173 54 -9
10 -22 34 -29 54 -9 28 -14 33 -19 20z"/>
</g>
</svg>
